# xmcd
#
# Track frame offsets:
# 150
# 5138
# 10964
# 23069
# 26829
# 28817
# 33408
# 42661
# 45770
# 52023
# 57878
# 59770
# 63806
# 79336
# 86505
# 87963
# 108409
# 118619
# 125386
# 131057
# 132908
# 135429
# 139318
# 141199
# 143700
# 146672
# 148700
# 151085
# 153506
# 157097
# 158239
# 160792
# 162894
# 167083
#
# Disc length: 2322 seconds
#
#
# Revision: 0
# Processed by: cddbd v1.5.2PL0 Copyright (c) Steve Scherf et al.
# Submitted via: FreeRIP 2.942 
#
DISCID=e0091022
DTITLE=Heinz Erhardt - 10 Pfennig Oper
DYEAR=2008
DGENRE=Humoristen
TTITLE0=Vorwort
TTITLE1=Intro
TTITLE2=Gießt ein - Der Muselmann
TTITLE3=Zeit für den Raubüberfall
TTITLE4=das Heißgetränk....
TTITLE5=Die Herrin naht...
TTITLE6=Gleich kommt sie rein...
TTITLE7=mitnichten...
TTITLE8=heute Nachmittag kommt Geierblick
TTITLE9=eines Ritters Augen...
TTITLE10=Jetzt geht sie...
TTITLE11=Ist sie Mein oder ist sie Sein
TTITLE12=Ich bin der Ritter Geierblick
TTITLE13=Küß die Hand gnädige Frau...
TTITLE14=Wie köstlich der labende Trank
TTITLE15=Laßt uns aufbrechen...
TTITLE16=Weil du mich liebst
TTITLE17=bin ich so glücklich
TTITLE18=Kunibert kommt zurück
TTITLE19=Clothilde stürzt sich hinab...
TTITLE20=Hulla, hulla
TTITLE21=Ich bin der Ritter Geierblick
TTITLE22=Zweikampf
TTITLE23=es traf mich eben...
TTITLE24=Nun liegt er da der Gute
TTITLE25=Mein Herr dahin...
TTITLE26=Achtung, fertig los!
TTITLE27=Weh mir...
TTITLE28=Nun liegt er da der Gute...
TTITLE29=Nun bin ich tot wie noch nie
TTITLE30=Ein Stich, ein Loch
TTITLE31=und schwimmt in seinem Blute
TTITLE32=Gießt ein, gießt ein, stoßt an stoßt an
TTITLE33=Bonus -Titel_Prélude D-Dur
EXTD=Musikdrama in einem Akt von Heinz Erhardt\nDichtung und Musik von Heinz Erhardt
EXTT0=
EXTT1=
EXTT2=
EXTT3=
EXTT4=
EXTT5=
EXTT6=
EXTT7=
EXTT8=
EXTT9=
EXTT10=
EXTT11=
EXTT12=
EXTT13=
EXTT14=
EXTT15=
EXTT16=
EXTT17=
EXTT18=
EXTT19=
EXTT20=
EXTT21=
EXTT22=
EXTT23=
EXTT24=
EXTT25=
EXTT26=
EXTT27=
EXTT28=
EXTT29=
EXTT30=
EXTT31=
EXTT32=
EXTT33=
PLAYORDER=
